{"title":"Sanctum-AC3-XviD-BDRip 2011 TBS","uid":6321658,"size":1611450001,"categoryP":"video","categoryS":"movies","magnet":"?xt=urn:btih:50062482b3293768b5af0c155d5ea4d8914576cd&amp;dn=Sanctum-AC3-XviD-BDRip+2011+TBS&amp;tr=udp%3A%2F%2Ftracker.openbittorrent.com%3A80&amp;tr=udp%3A%2F%2Fopen.demonii.com%3A1337&amp;tr=udp%3A%2F%2Ftracker.coppersurfer.tk%3A6969&amp;tr=udp%3A%2F%2Fexodus.desync.com%3A6969","seeders":0,"leechers":1,"uploader":"FatFreddy30","files":-1,"time":1302913019,"description":"An underwater cave diving team experiences a life-threatening crisis during an expedition to the unexplored and least accessible cave system in the world...\n &lt;a href=&quot;\nhttp://www.imdb.com/title/tt0881320/&quot; rel=&quot;nofollow&quot; target=&quot;_NEW&quot;&gt;\nhttp://www.imdb.com/title/tt0881320/&lt;/a&gt;\n\nSubs: Dutch, English.\n\nEen team van duikers is op expeditie naar de grootste, mooiste en minst toegankelijke grotten op aarde. Door een tropische storm worden ze gedwongen dieper de grotten in te gaan. De ervaren duiker Frank McGuire heeft de Esa-ala grotten in de Zuidelijke Pacific maandenlang onderzocht. Maar wanneer zijn onbekende vluchtweg geblokkeerd is door een vloedgolf wordt Frank's team inclusief zijn zeventienjarige zoon Josh en financier Carl Hurley gedwongen hun plan radicaal te wijzigen. Met slinkende voorraden moeten ze door een onderwater doolhof navigeren om een uitweg te vinden...\n &lt;a href=&quot;\nhttp://www.moviemeter.nl/film/70098&quot; rel=&quot;nofollow&quot; target=&quot;_NEW&quot;&gt;\nhttp://www.moviemeter.nl/film/70098&lt;/a&gt;\n\nOndertitels: Engels, Nederlands.\n\nSample and Screens included.\n\nGeneral\nComplete name                    : Sanctum-AC3-XviD-BDRip 2011.avi\nFormat                           : AVI\nFormat/Info                      : Audio Video Interleave\nFile size                        : 1.46 GiB\nDuration                         : 1h 44mn\nOverall bit rate                 : 2 010 Kbps\nWriting application              : VirtualDubMod 1.5.4.1 (build 2178/release)\nWriting library                  : VirtualDubMod build 2178/release\nSource                           : Sanctum.2011.BDRip.XviD.AC3-TDP \n\nVideo\nID                               : 0\nFormat                           : MPEG-4 Visual\nFormat profile                   : Simple@L3\nFormat settings, BVOP            : No\nFormat settings, QPel            : No\nFormat settings, GMC             : No warppoints\nFormat settings, Matrix          : Default (H.263)\nCodec ID                         : XVID\nCodec ID/Hint                    : XviD\nDuration                         : 1h 44mn\nBit rate                         : 1 617 Kbps\nWidth                            : 720 pixels\nHeight                           : 400 pixels\nDisplay aspect ratio             : 16:9\nFrame rate                       : 23.976 fps\nResolution                       : 8 bits\nColorimetry                      : 4:2:0\nScan type                        : Progressive\nBits/(Pixel*Frame)               : 0.234\nStream size                      : 1.18 GiB (80%)\nWriting library                  : XviD 1.1.2 (UTC 2006-11-01)\n\nAudio\nID                               : 1\nFormat                           : AC-3\nFormat/Info                      : Audio Coding 3\nCodec ID                         : 2000\nDuration                         : 1h 44mn\nBit rate mode                    : Constant\nBit rate                         : 384 Kbps\nChannel(s)                       : 6 channels\nChannel positions                : Front: L C R, Surround: L R, LFE\nSampling rate                    : 48.0 KHz\nStream size                      : 286 MiB (19%)\nAlignment                        : Split accross interleaves\nInterleave, duration             : 42 ms (1.00 video frame)\nInterleave, preload duration     : 500 ms\n\nThanks to TDP and Simply ReleaseS Toppers.\n\nEnjoy..\n\nTBS.","torrent":{"xt":"urn:btih:50062482b3293768b5af0c155d5ea4d8914576cd","amp;dn":"Sanctum-AC3-XviD-BDRip+2011+TBS","amp;tr":["udp%3A%2F%2Ftracker.openbittorrent.com%3A80","udp%3A%2F%2Fopen.demonii.com%3A1337","udp%3A%2F%2Ftracker.coppersurfer.tk%3A6969","udp%3A%2F%2Fexodus.desync.com%3A6969"],"infoHash":"50062482b3293768b5af0c155d5ea4d8914576cd","infoHashBuffer":{"type":"Buffer","data":[80,6,36,130,179,41,55,104,181,175,12,21,93,94,164,216,145,69,118,205]},"announce":[],"urlList":[]}}